<svg xmlns="http://www.w3.org/2000/svg" xmlns:xlink="http://www.w3.org/1999/xlink" version="1.1" width="256" height="256" viewBox="0 0 256 256" xml:space="preserve">

<defs>
</defs>
<g style="stroke: none; stroke-width: 0; stroke-dasharray: none; stroke-linecap: butt; stroke-linejoin: miter; stroke-miterlimit: 10; fill: none; fill-rule: nonzero; opacity: 1;" transform="translate(1.4065934065934016 1.4065934065934016) scale(2.81 2.81)" >
	<circle cx="44.997" cy="49.797" r="36.727" style="stroke: none; stroke-width: 1; stroke-dasharray: none; stroke-linecap: butt; stroke-linejoin: miter; stroke-miterlimit: 10; fill: rgb(241,241,241); fill-rule: nonzero; opacity: 1;" transform="  matrix(1 0 0 1 0 0) "/>
	<path d="M 38.223 13.07 c -0.556 0 -1.106 0.018 -1.657 0.037 c 20.246 0.777 36.415 16.902 36.415 36.689 S 56.812 85.708 36.566 86.486 c 0.55 0.02 1.101 0.037 1.657 0.037 c 22.715 0 41.129 -16.443 41.129 -36.727 S 60.938 13.07 38.223 13.07 z" style="stroke: none; stroke-width: 1; stroke-dasharray: none; stroke-linecap: butt; stroke-linejoin: miter; stroke-miterlimit: 10; fill: rgb(219,219,219); fill-rule: nonzero; opacity: 1;" transform=" matrix(1 0 0 1 0 0) " stroke-linecap="round" />
	<path d="M 74.232 22.238 l 2.668 -3.23 c 0.831 -1.004 1.22 -2.271 1.097 -3.568 c -0.123 -1.297 -0.744 -2.468 -1.748 -3.297 l -2.625 -2.169 c -1.005 -0.831 -2.273 -1.22 -3.569 -1.096 c -1.296 0.124 -2.467 0.744 -3.298 1.749 l -2.997 3.628 c -2.749 -1.457 -5.681 -2.61 -8.759 -3.401 V 6.419 C 55 2.88 52.121 0 48.582 0 h -7.164 C 37.879 0 35 2.88 35 6.419 v 4.434 C 17.654 15.309 4.796 31.079 4.796 49.796 C 4.796 71.965 22.832 90 45 90 s 40.204 -18.035 40.204 -40.204 C 85.204 39.137 81.026 29.441 74.232 22.238 z M 45 83.045 c -18.334 0 -33.249 -14.916 -33.249 -33.249 c 0 -18.334 14.915 -33.249 33.249 -33.249 s 33.249 14.915 33.249 33.249 C 78.249 68.13 63.334 83.045 45 83.045 z" style="stroke: none; stroke-width: 1; stroke-dasharray: none; stroke-linecap: butt; stroke-linejoin: miter; stroke-miterlimit: 10; fill: rgb(87,89,93); fill-rule: nonzero; opacity: 1;" transform=" matrix(1 0 0 1 0 0) " stroke-linecap="round" />
	<circle cx="17.221" cy="49.671" r="2.741" style="stroke: none; stroke-width: 1; stroke-dasharray: none; stroke-linecap: butt; stroke-linejoin: miter; stroke-miterlimit: 10; fill: rgb(219,219,219); fill-rule: nonzero; opacity: 1;" transform="  matrix(1 0 0 1 0 0) "/>
	<circle cx="45.041" cy="21.851" r="2.741" style="stroke: none; stroke-width: 1; stroke-dasharray: none; stroke-linecap: butt; stroke-linejoin: miter; stroke-miterlimit: 10; fill: rgb(219,219,219); fill-rule: nonzero; opacity: 1;" transform="  matrix(1 0 0 1 0 0) "/>
	<circle cx="45.041" cy="77.491" r="2.741" style="stroke: none; stroke-width: 1; stroke-dasharray: none; stroke-linecap: butt; stroke-linejoin: miter; stroke-miterlimit: 10; fill: rgb(219,219,219); fill-rule: nonzero; opacity: 1;" transform="  matrix(1 0 0 1 0 0) "/>
	<circle cx="72.861" cy="49.671" r="2.741" style="stroke: none; stroke-width: 1; stroke-dasharray: none; stroke-linecap: butt; stroke-linejoin: miter; stroke-miterlimit: 10; fill: rgb(219,219,219); fill-rule: nonzero; opacity: 1;" transform="  matrix(1 0 0 1 0 0) "/>
	<path d="M 27.128 77.789 c -9.232 -5.913 -15.377 -16.24 -15.377 -27.993 c 0 -11.954 6.352 -22.436 15.848 -28.296 c 0.878 -3.246 1.901 -6.336 3.049 -9.253 C 15.548 18.04 4.796 32.683 4.796 49.796 c 0 16.848 10.424 31.294 25.156 37.263 C 28.879 84.129 27.936 81.027 27.128 77.789 z" style="stroke: none; stroke-width: 1; stroke-dasharray: none; stroke-linecap: butt; stroke-linejoin: miter; stroke-miterlimit: 10; fill: rgb(63,64,66); fill-rule: nonzero; opacity: 1;" transform=" matrix(1 0 0 1 0 0) " stroke-linecap="round" />
	<circle cx="45.041" cy="49.671" r="2.741" style="stroke: none; stroke-width: 1; stroke-dasharray: none; stroke-linecap: butt; stroke-linejoin: miter; stroke-miterlimit: 10; fill: rgb(63,64,66); fill-rule: nonzero; opacity: 1;" transform="  matrix(1 0 0 1 0 0) "/>
	<path d="M 45.042 49.796 c 0.635 -0.625 1.269 -1.068 1.904 -1.515 c 0.635 0.03 1.269 0.008 1.904 0.015 h 3.807 h 3.807 h 1.904 c 0.635 0.456 1.269 0.899 1.904 1.5 c -0.635 0.601 -1.269 1.044 -1.904 1.5 h -1.904 h -3.807 h -3.807 c -0.635 0.007 -1.269 -0.015 -1.904 0.015 C 46.311 50.864 45.677 50.421 45.042 49.796 z" style="stroke: none; stroke-width: 1; stroke-dasharray: none; stroke-linecap: butt; stroke-linejoin: miter; stroke-miterlimit: 10; fill: rgb(63,64,66); fill-rule: nonzero; opacity: 1;" transform=" matrix(1 0 0 1 0 0) " stroke-linecap="round" />
	<path d="M 45.042 30.82 c 0.625 0.833 1.068 1.666 1.515 2.499 c -0.03 0.833 -0.008 1.666 -0.015 2.499 v 4.998 v 4.998 v 2.499 c -0.456 0.833 -0.899 1.666 -1.5 2.499 c -0.601 -0.833 -1.044 -1.666 -1.5 -2.499 l 0 -2.499 v -4.998 v -4.998 c -0.007 -0.833 0.015 -1.666 -0.015 -2.499 C 43.975 32.486 44.417 31.653 45.042 30.82 z" style="stroke: none; stroke-width: 1; stroke-dasharray: none; stroke-linecap: butt; stroke-linejoin: miter; stroke-miterlimit: 10; fill: rgb(63,64,66); fill-rule: nonzero; opacity: 1;" transform=" matrix(1 0 0 1 0 0) " stroke-linecap="round" />
</g>
</svg>